<?xml version="1.0" standalone="no"?>
<!DOCTYPE svg PUBLIC "-//W3C//DTD SVG 20010904//EN"
 "http://www.w3.org/TR/2001/REC-SVG-20010904/DTD/svg10.dtd">
<svg version="1.0" xmlns="http://www.w3.org/2000/svg"
 width="78.000000pt" height="78.000000pt" viewBox="0 0 78.000000 78.000000"
 preserveAspectRatio="xMidYMid meet">
<metadata>
Created by potrace 1.14, written by Peter Selinger 2001-2017
</metadata>
<g transform="translate(0.000000,78.000000) scale(0.100000,-0.100000)"
fill="#000000" stroke="none">
<path d="M239 748 c4 -12 17 -28 28 -35 17 -12 21 -11 30 10 13 28 -1 62 -16
38 -6 -9 -11 -10 -15 -2 -4 6 -14 11 -21 11 -11 0 -12 -6 -6 -22z"/>
<path d="M180 732 c0 -11 -6 -22 -12 -25 -20 -7 -1 -21 32 -23 29 -2 29 -2 17
29 -15 36 -37 47 -37 19z"/>
<path d="M468 733 c-30 -15 -28 -38 3 -48 23 -8 48 10 45 31 -4 25 -20 31 -48
17z"/>
<path d="M559 710 c-16 -17 -15 -19 8 -29 33 -15 43 -14 43 7 0 17 -18 43 -29
41 -4 0 -13 -9 -22 -19z"/>
<path d="M627 710 c-6 -22 16 -50 38 -50 8 0 19 9 25 21 10 17 8 21 -9 26 -12
3 -21 9 -21 14 0 18 -28 8 -33 -11z"/>
<path d="M342 708 c-7 -7 -12 -22 -12 -34 0 -18 5 -22 22 -19 35 7 42 21 21
44 -15 16 -22 18 -31 9z"/>
<path d="M82 699 c2 -7 14 -19 27 -27 22 -15 23 -15 19 9 -2 16 -10 25 -27 27
-15 3 -22 -1 -19 -9z"/>
<path d="M450 652 c0 -10 11 -29 25 -42 14 -13 24 -29 21 -36 -3 -8 5 -11 22
-9 15 2 33 -2 39 -7 8 -6 7 2 -3 21 -13 26 -18 29 -35 21 -10 -6 -20 -8 -20
-5 -1 3 -3 10 -4 15 -1 6 -3 17 -4 25 0 8 -10 19 -21 25 -17 9 -20 8 -20 -8z"/>
<path d="M525 650 c-18 -19 -17 -20 7 -20 26 0 53 22 41 33 -12 12 -30 7 -48
-13z"/>
<path d="M690 655 c-7 -8 -20 -15 -29 -15 -8 0 0 -8 19 -19 44 -23 57 -18 56
19 -1 33 -25 41 -46 15z"/>
<path d="M68 653 c-31 -8 -8 -34 28 -31 18 1 30 6 28 10 -9 14 -38 25 -56 21z"/>
<path d="M149 643 c-1 -10 -1 -24 0 -32 2 -8 -3 -10 -11 -6 -10 6 -11 5 0 -6
10 -11 15 -11 27 2 9 8 17 25 20 37 3 17 -1 22 -16 22 -11 0 -19 -7 -20 -17z"/>
<path d="M207 653 c-10 -9 -8 -35 2 -52 7 -10 13 -11 30 -2 24 13 28 41 6 41
-8 0 -15 5 -15 10 0 11 -13 13 -23 3z"/>
<path d="M602 629 c-12 -19 -11 -19 8 -9 11 6 18 15 15 21 -8 12 -8 12 -23
-12z"/>
<path d="M387 623 c-12 -11 -8 -40 7 -52 10 -9 19 -7 36 7 20 16 21 19 6 31
-9 7 -16 10 -16 6 0 -4 -6 -2 -13 4 -8 6 -17 8 -20 4z"/>
<path d="M53 592 c-3 -9 -8 -20 -10 -24 -2 -4 3 -5 11 -2 11 4 16 0 16 -10 0
-13 4 -15 17 -8 15 9 27 51 14 53 -3 0 -14 2 -24 4 -10 2 -21 -4 -24 -13z"/>
<path d="M627 598 c-22 -12 -23 -42 -1 -34 9 3 19 6 24 6 4 0 10 6 13 14 7 18
-14 27 -36 14z"/>
<path d="M336 571 c-3 -5 1 -11 9 -14 9 -4 12 -1 8 9 -6 16 -10 17 -17 5z"/>
<path d="M704 555 c-1 -18 3 -25 16 -25 28 0 35 19 14 35 -26 20 -29 19 -30
-10z"/>
<path d="M180 563 c0 -5 -12 -8 -27 -6 -16 2 -35 -1 -43 -7 -13 -9 -13 -11 0
-20 8 -5 20 -10 26 -10 18 0 60 37 52 46 -5 4 -8 3 -8 -3z"/>
<path d="M300 558 c0 -11 -8 -18 -20 -18 -23 0 -25 -8 -5 -33 9 -13 20 -17 33
-13 29 10 34 32 12 58 -16 19 -19 20 -20 6z"/>
<path d="M600 541 c13 -26 34 -36 56 -27 13 5 14 9 4 21 -7 9 -20 15 -29 13
-9 -1 -22 1 -29 6 -12 7 -12 4 -2 -13z"/>
<path d="M61 523 c-1 -6 -10 -15 -22 -18 -16 -5 -18 -10 -8 -21 26 -31 55 -11
40 28 -6 12 -10 18 -10 11z"/>
<path d="M185 504 c-11 -13 -25 -24 -31 -24 -7 0 -19 -11 -28 -25 -15 -23 -15
-26 -1 -31 22 -9 46 3 39 19 -3 8 2 17 11 21 9 3 18 0 22 -9 4 -12 9 -13 19
-4 17 14 17 39 1 60 -11 14 -14 14 -32 -7z"/>
<path d="M448 501 c4 -10 1 -12 -9 -6 -11 6 -12 5 -2 -5 9 -10 9 -18 1 -34
-11 -20 -10 -20 8 -6 31 25 40 34 47 52 5 14 1 17 -22 15 -20 -1 -27 -6 -23
-16z"/>
<path d="M557 506 c-17 -17 -13 -46 7 -46 21 0 42 19 30 28 -6 4 -13 13 -15
21 -4 11 -8 11 -22 -3z"/>
<path d="M692 501 c-10 -6 -11 -17 -5 -40 l8 -33 25 20 c20 17 23 24 14 38
-13 22 -25 26 -42 15z"/>
<path d="M247 455 c4 -28 2 -35 -11 -35 -19 0 -20 -5 -6 -31 16 -28 32 -23 28
8 -2 17 2 28 10 29 6 1 16 2 21 3 5 0 12 9 15 18 8 20 -17 43 -45 43 -15 0
-17 -6 -12 -35z"/>
<path d="M330 480 c0 -5 5 -10 11 -10 5 0 7 5 4 10 -3 6 -8 10 -11 10 -2 0 -4
-4 -4 -10z"/>
<path d="M620 456 c0 -27 21 -47 28 -28 2 7 8 10 13 6 5 -3 9 2 9 10 0 13 -28
36 -44 36 -3 0 -6 -11 -6 -24z"/>
<path d="M398 458 c7 -7 12 -22 12 -35 l0 -23 -20 20 c-26 26 -55 26 -73 0
-20 -29 -10 -64 35 -114 27 -31 44 -43 55 -39 13 5 15 2 10 -11 -4 -10 -7 -23
-7 -29 0 -7 -9 2 -19 19 -18 30 -41 52 -41 40 0 -3 12 -22 26 -43 20 -29 24
-46 20 -73 -3 -19 -8 -62 -11 -95 l-7 -60 32 0 c30 0 31 1 24 30 -17 64 -9
147 20 198 15 26 34 47 42 47 8 0 14 7 14 15 0 8 5 15 12 15 6 0 21 8 32 17
18 15 18 14 -1 -8 -24 -27 -30 -49 -13 -49 7 0 8 -13 5 -34 -7 -34 9 -52 32
-38 20 14 36 54 23 62 -6 4 -13 24 -14 44 -2 20 -6 39 -9 43 -12 11 -94 -51
-125 -96 l-32 -46 6 34 c4 20 20 46 40 63 43 38 53 77 24 100 -12 10 -33 18
-46 18 -21 0 -29 10 -25 33 0 4 -7 7 -16 7 -13 0 -14 -3 -5 -12z"/>
<path d="M558 424 c-36 -19 -35 -29 2 -44 17 -7 30 -16 30 -21 0 -5 16 1 36
13 31 18 38 19 60 7 22 -11 27 -11 34 1 14 23 12 27 -15 32 -13 3 -22 1 -19
-4 3 -5 0 -8 -7 -7 -8 2 -28 -5 -46 -14 -41 -22 -46 -21 -38 3 3 11 3 26 -2
34 -7 12 -12 12 -35 0z"/>
<path d="M97 414 c-5 -5 2 -44 8 -44 12 0 35 14 35 21 0 11 -36 30 -43 23z"/>
<path d="M176 378 c3 -5 9 -7 12 -4 3 3 12 0 21 -6 13 -10 14 -10 4 2 -15 16
-46 23 -37 8z"/>
<path d="M230 360 c0 -4 9 -10 20 -13 11 -3 20 -2 20 3 0 4 -9 10 -20 13 -11
3 -20 2 -20 -3z"/>
<path d="M148 343 c-25 -6 -22 -30 4 -44 18 -10 24 -8 35 7 23 31 4 49 -39 37z"/>
<path d="M610 339 c0 -16 20 -49 30 -49 14 0 41 31 37 43 -4 13 -67 20 -67 6z"/>
<path d="M233 321 c3 -12 1 -24 -4 -27 -16 -9 0 -24 19 -17 26 10 44 32 37 44
-4 6 2 5 14 -3 26 -16 27 -24 1 -31 -12 -3 -20 -14 -20 -27 0 -16 4 -20 16
-16 9 3 18 6 20 6 2 0 4 7 4 15 0 7 7 18 15 23 25 13 -14 42 -65 48 -39 5 -42
3 -37 -15z"/>
<path d="M483 263 c-7 -3 -13 -9 -13 -13 0 -14 35 -29 48 -21 16 10 -17 41
-35 34z"/>
</g>
</svg>
